<svg xmlns="http://www.w3.org/2000/svg" version="1.1" xmlns:xlink="http://www.w3.org/1999/xlink" width="464" height="512"><svg xmlns="http://www.w3.org/2000/svg" xml:space="preserve" viewBox="0 0 464 512">
  <path d="M260.09 422.29c-59.2 12.78-110.52-1.6-154.33-42.66-17.4-16.3-30.03-36-39.4-57.85-.87-2.05-2.27-4.04-1.9-6.79 2.2.73 2.52 2.65 3.26 4.17 19.65 40.46 49.25 70.95 90.58 89.28 21.72 9.64 44.66 13.94 68.5 13.48 26.61-.5 51.67-7 75.46-18.74 3-1.49 5.4-4.95 9.03-13.37-8.6 6.02-17.02 11.27-26.05 15.47-24.72 11.48-50.63 16.52-77.73 13.16-64.72-8.01-106.6-45.07-131.06-104-1.39-3.35-.95-5.04 2.45-7.08a4902.63 4902.63 0 0 0 72.53-44.25c4.43-2.75 7.54-2.8 11.97.14 15.84 10.48 32.06 20.37 48.03 30.66 3.07 1.97 5.17 1.84 7.85-.63 5.88-5.42 12.16-10.4 18.04-15.82 2.94-2.7 5.3-2.79 8.8-.8 17.34 9.94 34.91 19.5 52.27 29.4 3.67 2.1 6.5 2.18 9.98-.3 5.7-4.05 11.7-7.67 17.64-11.38 2.13-1.34 3.49-2.65 2.97-5.59-2.03-11.36-5.07-22.4-9.96-32.87-2.72-5.82-6.23-6.24-10.47-1.31-3.19 3.7-5.2 8.07-6.42 12.84a137.27 137.27 0 0 0-3.7 24.64c-.07.97.1 2.02-1.2 3.24-6.91-5.15-10.24-12.25-10.9-20.63-.63-8.16 3.54-15.24 5.94-23.03-13.39 4.95-23.07 15-34.86 24.58-.83-11.07 2.94-18.57 9.7-25.05 6.6-6.3 14.68-10.14 24.03-14.53-9.12-3.69-17.96-2.82-26.48-5.58 3.43-6.61 9.24-8.5 15.31-9.3 4.08-.55 8.35-.32 12.45.2 6.69.83 6.82 1.1 8.65-5.64 2.68-9.9 8.59-16.74 18.24-20.3.78-.28 1.6-.48 2.42-.6.45-.06.94.15 2.2.37-2.9 7.8-7.93 15.05-5.77 25.39 12.24-14.96 26.67-19.96 44.34-13.86-11.38 4.69-21.07 11.54-30.8 21.64 18.4-1.53 30.7 4.07 34.32 22.2-2.63 1.17-3.83-.65-5.3-1.5-8.7-5.04-17.78-8.2-28.07-6.37-6.24 1.1-7.12 2.55-4.33 8.12a116.19 116.19 0 0 1 9.85 27.7c.39 1.78.55 3.6 2.21 4.99.63-.16 1.31-.2 1.87-.47 7.3-3.61 7.29-3.61 11.84 3.36 3.78 5.8 7.6 11.57 11.94 18.17 3.22-6.04 4.34-11.58 5.57-17 8.89-39.16-.26-74.87-21.17-108.23a172.17 172.17 0 0 0-23.52-29.74c-2.47-2.5-4.7-2.93-7.94-1.52-16.14 7.03-24.6 20.26-29.68 36.27-2.3 7.25-3.29 14.8-4.38 22.44-8.83-4.74-14.9-22.45-12.17-33.89 3.05-12.8 11.95-21.48 20.86-30.53-23.3 3.02-42.57 15.72-64.13 26.4 2.42-16.09 9.5-27.69 21.8-35.98 11.87-8 25.51-10.63 39.7-12.17-11.22-6.97-24.06-9.04-36.02-13.39.69-3.05 2.96-3.67 4.78-4.62 14.73-7.74 29.3-6.21 43.5 1.36 3.45 1.84 4.88 1.23 6.39-2.1 4.02-8.84 8.87-17.17 16.48-23.54a34.06 34.06 0 0 1 15.62-7.42c1.92-.37 3.95-.94 5.89.96-7.67 9.48-11.26 20.92-15.15 32.2-.36 1.04-.33 2.21-.62 4.39 18.03-13.15 36.44-22.15 58.67-16.67 6.09 1.5 11.87 3.78 16.7 8.57-22.39.7-41.5 9.43-60.07 22.04 4.34 2.25 8.05 1.27 11.58 1.66 13.99 1.5 26.09 6.28 32.2 20.07 2.77 6.27 4.47 13.04 2.02 20.95-15.76-12.87-31.23-24.77-52.13-23.18l-.76 1.4c5.04 6.13 10.33 12.08 15.07 18.44 19.61 26.34 29.31 55.98 32.62 88.73 5.67 56.14-30.77 120.49-78.83 150.26a179.85 179.85 0 0 1-48.82 20.94M157.43 284.93c2.13-2.55 4.22-5.14 6.4-7.65 1.77-2.02 2.52-4.07.07-5.98-2.47-1.92-3.8-6.61-8.43-3.75l-11.9 7.31c-18.12 11.18-36.25 22.35-54.35 33.56-1.8 1.1-4.03 2-3.92 4.7.16 3.8.65 7.53 2.37 10.86 1.88.43 3.2-.43 4.54-1 10.87-4.62 21.5-9.91 32.64-13.75 13.39-4.6 24.35-11.86 32.58-24.3m165.88 81.83c-1.61 3.6-1.68 7.42-1.82 11.25-.04 1.15-.45 2.45.94 3.06 1.53.68 2.53-.44 3.44-1.39 2.33-2.42 3.93-5.35 5.5-8.3 2.44-4.63 5.16-9.29 10.3-11.12 9.12-3.26 14.75-9.71 18.67-18.2 1.45-3.16 3.06-6.38 5.27-9.02a17.83 17.83 0 0 0 4.02-8.96c.47-2.94 1.25-6.43-2.45-7.75-3.5-1.25-4.95 1.8-6.33 4.3-5.04 9.02-10.3 17.9-16.49 26.2-1.02 1.36-1.6 3.4-3.92 3.25-1.07-1.59-.78-3.29-.49-4.88 1.44-7.76.9-15.61 1.07-23.42.04-2.04.45-4.86-2.49-5.25-2.43-.32-3.92 1.82-4.8 3.77-1.5 3.36-1.94 7.05-2.42 10.69-1.57 11.9-4 23.6-8 35.77m-181.34-17.64 28.97-9.09c1.75-.55 3.6-1.04 4.65-2.68 5.2-8.05 10.33-16.13 15.48-24.2-10.01 2-19.91 2.86-27.29 10.85-6.4 6.94-13.72 13.02-20.64 19.49l-6.55 6.14c2 1.02 3.3-.12 5.38-.51m101.95-65.72c-1.19-1.8-2.18-4.16-4.86-1.69-8.32 7.67-16.64 15.33-24.95 23.01-1.31 1.2-2.33 2.62-.86 4.3 3.55 4.08 6.77 8.5 11 11.84 1.66-1.18 1.63-2.7 1.7-3.9.54-10.34 6.08-17.98 13.06-24.92 1.42-1.4 2.63-3.01 3.9-4.54.85-1.01 1.9-1.96 1-4.1m74.56 27.7c-2.8 1.84-6.27 2.75-8.8 5.96 5.12 2.7 10.23 4.81 12.88 10.21v-17.06c-1.45-.61-2.44.06-4.08.89zM125.75 160.23l-5.96-7.77c-4.6 4.29-7.49 9.35-10.98 13.88-6.3 8.18-12.2 16.66-18.39 24.92a8.8 8.8 0 0 0-1.76 6.96c.73 5.6.91 11.28 1.63 16.88.6 4.7-1.52 7.2-6.44 8.72-6.58-16.64-20.83-23.37-37.32-26.95 1.02-4.56 2.74-7.88 7.32-8.17 14.81-.95 24.44-8.63 31.23-21.64 4.9-9.36 11.59-17.8 18.18-27.7L51 124.95c2.2-7.24 8.2-11.94 14.86-12.06 17.48-.3 34.97-.72 52.46-.86 3.77-.03 6.09-1.16 7.97-4.53a120.8 120.8 0 0 1 17.66-24.13c3.53-3.74 7.72-6.35 12.85-7.2 4.42-.73 6.13.72 6.49 5.22.45 5.66-.62 10.8-4.02 15.58-5.7 8-10.95 16.32-16.66 24.31-2.17 3.04-2.56 5.78-1.37 9.27 5.5 16.23 10.84 32.53 16.22 48.8 2.48 7.52 1.6 9.54-6.47 13.94-8.3-10.86-16.67-21.81-25.24-33.05zM58.36 237.67c1.54-2.12 3.07-1.73 4.27-.36.92 1.04.65 2.48.01 3.68-.64 1.2-1.83 1.37-2.96 1-2.08-.65-1.98-2.26-1.32-4.32zM61.37 250.85c-2.6.9-4.4.68-4.23-2.33.08-1.56.55-3.14 2.64-2.82 3.38.52 2.57 2.77 1.59 5.15zM61.6 258.76c-.68 2.16-1.9 2.69-3.55 1.9-1.47-.68-1.39-2.1-1.22-3.43.15-1.3.86-2.18 2.22-2.2 2.27-.03 2.64 1.53 2.55 3.73zM62.57 226.9c2.7 1.78 2.32 3.86.62 5.5-1 .98-2.9.38-3.39-.88-.85-2.16-.77-4.34 2.77-4.62zM61.23 221.07c.55-1.82.46-3.9 2.97-3.43 1.05.2 1.85.8 1.98 1.92.16 1.32.27 2.87-1.14 3.5-1.65.74-3.26.55-3.81-1.99zM56.88 267.08c.97-2.72 2.68-3.04 4.21-1.4 1.16 1.24 1.4 3.32-.56 4.21-2.03.94-3.57.14-3.65-2.8zM59.08 284.07c2.82-1.22 4.06-.26 4.13 2.37.04 1.5-.57 2.78-2.2 2.63-3.22-.3-2.74-2.58-1.93-5zM59.96 273.97c.71.12 1.11.16 1.29.39 1.36 1.72 1.71 3.52-.2 5.05-.76.61-2.07.7-2.6-.25-1.08-1.92-1.67-3.97 1.5-5.2z"></path>
</svg><style>@media (prefers-color-scheme: light) { :root { filter: none; } }
@media (prefers-color-scheme: dark) { :root { filter: none; } }
</style></svg>